<mxfile host="app.diagrams.net" modified="2022-12-14T23:34:12.944Z" agent="5.0 (Windows NT 10.0; Win64; x64) AppleWebKit/537.36 (KHTML, like Gecko) Chrome/108.0.0.0 Safari/537.36" version="20.6.2" etag="E_E6Y0Ed7PXjyr9IrRiA" type="github">
  <diagram id="EiKqst9jLAIHCGcdTzY0" name="Page-1">
    <mxGraphModel dx="2622" dy="1154" grid="0" gridSize="10" guides="1" tooltips="1" connect="1" arrows="1" fold="1" page="0" pageScale="1" pageWidth="827" pageHeight="1169" math="0" shadow="0">
      <root>
        <mxCell id="0" />
        <mxCell id="1" parent="0" />
        <mxCell id="NmGkp7Qkor2hBswFrCYM-8" style="edgeStyle=orthogonalEdgeStyle;rounded=0;orthogonalLoop=1;jettySize=auto;html=1;entryX=0;entryY=0.5;entryDx=0;entryDy=0;endArrow=none;endFill=0;" edge="1" parent="1" source="NmGkp7Qkor2hBswFrCYM-1" target="NmGkp7Qkor2hBswFrCYM-2">
          <mxGeometry relative="1" as="geometry" />
        </mxCell>
        <mxCell id="NmGkp7Qkor2hBswFrCYM-1" value="&amp;lt;&amp;lt;boundary&amp;gt;&amp;gt;&lt;br&gt;&lt;u&gt;ui1: AppGUI&lt;/u&gt;" style="rounded=0;whiteSpace=wrap;html=1;" vertex="1" parent="1">
          <mxGeometry x="-1003" y="134" width="149" height="65" as="geometry" />
        </mxCell>
        <mxCell id="NmGkp7Qkor2hBswFrCYM-2" value="&amp;lt;&amp;lt;control&amp;gt;&amp;gt;&lt;br&gt;&lt;u&gt;lm1: LoginManager&lt;/u&gt;" style="rounded=0;whiteSpace=wrap;html=1;" vertex="1" parent="1">
          <mxGeometry x="-737" y="134" width="161" height="65" as="geometry" />
        </mxCell>
        <mxCell id="NmGkp7Qkor2hBswFrCYM-3" value="&amp;lt;&amp;lt;control&amp;gt;&amp;gt;&lt;br&gt;&lt;u&gt;rm1: RegistrationManager&lt;/u&gt;" style="rounded=0;whiteSpace=wrap;html=1;" vertex="1" parent="1">
          <mxGeometry x="-767" y="427" width="164" height="40" as="geometry" />
        </mxCell>
        <mxCell id="NmGkp7Qkor2hBswFrCYM-4" value="&amp;lt;&amp;lt;control&amp;gt;&amp;gt;&lt;br&gt;&lt;u&gt;qm1: QuizManager&lt;/u&gt;" style="rounded=0;whiteSpace=wrap;html=1;fillColor=default;" vertex="1" parent="1">
          <mxGeometry x="-935" y="509" width="129" height="40" as="geometry" />
        </mxCell>
        <mxCell id="NmGkp7Qkor2hBswFrCYM-5" value="&amp;lt;&amp;lt;control&amp;gt;&amp;gt;&lt;br&gt;&lt;u&gt;rm1: RecommendationManager&lt;/u&gt;" style="rounded=0;whiteSpace=wrap;html=1;fillColor=default;" vertex="1" parent="1">
          <mxGeometry x="-767" y="509" width="171" height="40" as="geometry" />
        </mxCell>
        <mxCell id="NmGkp7Qkor2hBswFrCYM-6" value="&amp;lt;&amp;lt;control&amp;gt;&amp;gt;&lt;br&gt;&lt;u&gt;gm1: GoalManager&lt;/u&gt;" style="rounded=0;whiteSpace=wrap;html=1;fillColor=default;" vertex="1" parent="1">
          <mxGeometry x="-557" y="509" width="134" height="40" as="geometry" />
        </mxCell>
        <mxCell id="NmGkp7Qkor2hBswFrCYM-9" style="edgeStyle=orthogonalEdgeStyle;rounded=0;orthogonalLoop=1;jettySize=auto;html=1;entryX=1;entryY=0.5;entryDx=0;entryDy=0;endArrow=none;endFill=0;" edge="1" parent="1" source="NmGkp7Qkor2hBswFrCYM-7" target="NmGkp7Qkor2hBswFrCYM-2">
          <mxGeometry relative="1" as="geometry" />
        </mxCell>
        <mxCell id="NmGkp7Qkor2hBswFrCYM-7" value="&amp;lt;&amp;lt;entity&amp;gt;&amp;gt;&lt;br&gt;&lt;u&gt;u1: User&lt;/u&gt;" style="rounded=0;whiteSpace=wrap;html=1;" vertex="1" parent="1">
          <mxGeometry x="-459" y="134" width="161" height="65" as="geometry" />
        </mxCell>
        <mxCell id="NmGkp7Qkor2hBswFrCYM-10" value="&amp;lt;&amp;lt;entity&amp;gt;&amp;gt;&lt;br&gt;&lt;u&gt;a1: AAA&lt;/u&gt;" style="rounded=0;whiteSpace=wrap;html=1;" vertex="1" parent="1">
          <mxGeometry x="-459" y="-8" width="161" height="65" as="geometry" />
        </mxCell>
      </root>
    </mxGraphModel>
  </diagram>
</mxfile>
